<?xml version="1.0" encoding="utf-8"?>
<!-- Generator: Adobe Illustrator 22.0.1, SVG Export Plug-In . SVG Version: 6.00 Build 0)  -->
<svg version="1.1" id="Ebene_1" xmlns="http://www.w3.org/2000/svg" xmlns:xlink="http://www.w3.org/1999/xlink" x="0px" y="0px"
	 viewBox="0 0 500 500" style="enable-background:new 0 0 500 500;" xml:space="preserve">
<style type="text/css">
	.st0{fill:#FF1AE0;stroke:#FF1AE0;stroke-miterlimit:10;}
</style>
<g>
	<image style="overflow:visible;" width="568" height="366" xlink:href="A490BD6B.png"  transform="matrix(1 0 0 1 -34 67)">
	</image>
	<g>
		<g>
			<g>
				<g>
					<path class="st0" d="M62.3,127.9c1.5,0,1.7,2.2,1.7,4.6c0,2.4-0.2,4.6-1.7,4.6h-11v46.8c0,1.9-2.8,2.1-5.9,2.1
						c-3.1,0-5.9-0.2-5.9-2.1v-46.7H28.2c-1.5,0-1.7-2.2-1.7-4.6c0-2.4,0.2-4.6,1.7-4.6L62.3,127.9L62.3,127.9z"/>
					<path class="st0" d="M85.1,137.3v15h12c1.5,0,1.7,2.2,1.7,4.6c0,2.4-0.2,4.6-1.7,4.6h-12v15.2h18.4c1.5,0,1.7,2.2,1.7,4.6
						s-0.2,4.6-1.7,4.6H79.1c-3.1,0-5.8-0.2-5.8-2.1v-53.9c0-1.9,2.8-2.1,5.8-2.1h24.4c1.5,0,1.7,2.2,1.7,4.6c0,2.4-0.2,4.6-1.7,4.6
						H85.1V137.3z"/>
					<path class="st0" d="M126.5,184.1c0,1.9-2.8,2.1-5.9,2.1s-5.9-0.2-5.9-2.1v-53.9c0-1.9,2.8-2.1,5.9-2.1s5.9,0.2,5.9,2.1V184.1z
						"/>
					<path class="st0" d="M168.4,176.8c1.5,0,1.7,2.2,1.7,4.6c0,2.4-0.2,4.6-1.7,4.6H144c-3.1,0-5.8-0.2-5.8-2.1v-53.9
						c0-1.9,2.8-2.1,5.9-2.1c3.1,0,5.9,0.2,5.9,2.1v46.7L168.4,176.8L168.4,176.8z"/>
					<path class="st0" d="M192,154.1h-0.5v30c0,1.9-2.8,2.1-5.9,2.1c-3.1,0-5.9-0.2-5.9-2.1v-53.9c0-1.8,1.8-2.1,3.7-2.1
						c2.6,0,4.1,0.2,5.4,1.9l22.5,29.7h0.5V130c0-1.9,2.8-2.1,5.9-2.1c3.1,0,5.9,0.2,5.9,2.1v53.9c0,1.8-1.8,2.1-3.7,2.1
						c-2.6,0-4.2-0.2-5.5-1.9L192,154.1z"/>
					<path class="st0" d="M265.4,130.6l12.8,53.7c0,1.8-2.4,1.9-5.4,1.9s-5.7-0.1-6.1-1.9l-2.6-11h-17.6l-2.6,11
						c-0.4,1.8-3.2,1.9-6.1,1.9s-5.4-0.1-5.4-1.9l12.8-53.7c0.6-2.3,6.6-2.6,10.2-2.6C258.8,127.9,264.8,128.3,265.4,130.6z
						 M248.8,163.1h12.8l-6-25.2H255L248.8,163.1z"/>
					<path class="st0" d="M329.6,184.1c0,1.9-2.8,2.1-5.9,2.1s-5.9-0.2-5.9-2.1v-21.6h-19.1v21.6c0,1.9-2.8,2.1-5.9,2.1
						s-5.9-0.2-5.9-2.1v-53.9c0-1.9,2.8-2.1,5.9-2.1s5.9,0.2,5.9,2.1v22.1h19.1v-22.1c0-1.9,2.8-2.1,5.9-2.1s5.9,0.2,5.9,2.1V184.1z
						"/>
					<path class="st0" d="M367.4,149.6l14.8-19.8c0.8-1.3,1.8-1.8,5.3-1.8c2.6,0,5.6,0.2,5.6,2.2v53.9c0,1.9-2.8,2.1-5.9,2.1
						s-5.9-0.2-5.9-2.1v-32.4h-0.5l-12,16.6c-0.4,0.5-0.8,0.7-1.6,0.7c-0.6,0-1.2-0.3-1.6-0.7l-12-16.6h-0.5v32.4
						c0,1.9-2.8,2.1-5.9,2.1s-5.9-0.2-5.9-2.1v-53.9c0-2,3.1-2.2,5.6-2.2c3.4,0,4.3,0.6,5.3,1.8l14.8,19.8L367.4,149.6L367.4,149.6z
						"/>
					<path class="st0" d="M416.5,137.3v15h12c1.5,0,1.7,2.2,1.7,4.6c0,2.4-0.2,4.6-1.7,4.6h-12v15.2h18.3c1.5,0,1.7,2.2,1.7,4.6
						s-0.2,4.6-1.7,4.6h-24.3c-3.1,0-5.8-0.2-5.8-2.1v-53.9c0-1.9,2.8-2.1,5.8-2.1h24.4c1.5,0,1.7,2.2,1.7,4.6
						c0,2.4-0.2,4.6-1.7,4.6h-18.4V137.3z"/>
					<path class="st0" d="M447.8,172.3c-1.5,0-1.7-2.2-1.7-4.6s0.2-4.6,1.7-4.6h24c1.5,0,1.7,2.2,1.7,4.6c0,2.4-0.2,4.6-1.7,4.6
						H447.8z"/>
					<path class="st0" d="M173.5,269.7h19.7c1.5,0,1.7,2.2,1.7,4.6c0,2.4-0.2,4.6-1.7,4.6h-31.3c-1.7,0-1.7-2.7-1.7-5.2
						c0-1.8,0-3.6,0.5-4.6l20.9-38.5v-0.6h-19.7c-1.5,0-1.7-2.2-1.7-4.6c0-2.4,0.2-4.6,1.7-4.6h31.3c1.7,0,1.7,2.7,1.7,5.2
						c0,1.8,0,3.6-0.5,4.6l-20.9,38.6V269.7z"/>
					<path class="st0" d="M234.7,223.3l12.8,53.7c0,1.8-2.4,1.9-5.4,1.9s-5.7-0.1-6.1-1.9l-2.6-11h-17.6l-2.6,11
						c-0.4,1.8-3.2,1.9-6.1,1.9s-5.4-0.1-5.4-1.9l12.8-53.7c0.6-2.3,6.6-2.6,10.2-2.6C228.2,220.8,234.1,221.1,234.7,223.3z
						 M218.1,255.8h12.8l-6-25.2h-0.6L218.1,255.8z"/>
					<path class="st0" d="M298.9,276.8c0,1.9-2.8,2.1-5.9,2.1s-5.9-0.2-5.9-2.1v-21.6H268v21.6c0,1.9-2.8,2.1-5.9,2.1
						s-5.9-0.2-5.9-2.1v-53.9c0-1.9,2.8-2.1,5.9-2.1s5.9,0.2,5.9,2.1v22.1h19.1v-22.1c0-1.9,2.8-2.1,5.9-2.1s5.9,0.2,5.9,2.1V276.8z
						"/>
					<path class="st0" d="M340.7,269.7c1.5,0,1.7,2.2,1.7,4.6c0,2.4-0.2,4.6-1.7,4.6h-24.4c-3.1,0-5.8-0.2-5.8-2.1v-53.8
						c0-1.9,2.8-2.1,5.9-2.1s5.9,0.2,5.9,2.1v46.7H340.7L340.7,269.7z"/>
					<path class="st0" d="M76.7,371.8c-3.1,0-5.8-0.2-5.8-2.1v-53.9c0-1.9,2.8-2.1,5.8-2.1h13.6c16.3,0,19.3,9.3,19.3,16.1
						c0,2.4-0.9,9.5-7.1,12.7v0.6c6.3,2.5,7.9,8.1,7.9,12.1c0,10.6-3.7,16.8-20.3,16.8H76.7V371.8z M97.8,330.3c0-7-4.5-7.5-9.2-7.5
						h-5.9v15.1h5.9C93.2,337.8,97.8,337.3,97.8,330.3z M98.6,354.8c0-7-4.5-7.6-9.5-7.6h-6.5v15.2h6.5
						C94.1,362.5,98.6,362,98.6,354.8z"/>
					<path class="st0" d="M131.9,322.8v15h12c1.5,0,1.7,2.2,1.7,4.6c0,2.4-0.2,4.6-1.7,4.6h-12v15.2h18.3c1.5,0,1.7,2.2,1.7,4.6
						c0,2.4-0.2,4.6-1.7,4.6h-24.4c-3.1,0-5.8-0.2-5.8-2.1v-53.9c0-1.9,2.8-2.1,5.8-2.1h24.4c1.5,0,1.7,2.2,1.7,4.6
						c0,2.4-0.2,4.6-1.7,4.6h-18.3V322.8z"/>
					<path class="st0" d="M200.7,370c0,2.1-13.2,2.1-15.9,2.1c-19.1,0-27.4-12.4-27.4-29.3c0-13.9,5.3-29.7,27.8-29.7
						c5,0,7.5,0.3,12.4,1.2c0.6,0.3,1.1,0.9,1.1,1.9c0,1.5-0.6,6.9-2.5,7.1c-3-0.6-6.3-0.8-9.5-0.8c-12.1,0-17.6,7.5-17.6,20.7
						c0,13.6,5.5,19.8,17.6,19.8c0.9,0,1.1,0,3.6-0.5v-13.8H184c-1.5,0-1.6-2.7-1.6-5.1c0-2.5,0.1-5.2,1.6-5.2h15.5
						c1.3,0,1.3,2.5,1.3,4.5L200.7,370L200.7,370z"/>
					<path class="st0" d="M232.9,357.5c-1.1,0.1-2.2,0.1-3.5,0.1h-6.2v12c0,1.9-2.8,2.1-5.9,2.1c-3.1,0-5.9-0.2-5.9-2.1v-53.9
						c0-1.9,2.8-2.1,5.9-2.1h12.1c16.7,0,21.2,9.4,21.2,22.8c0,8.5-1.8,14.9-7.5,18.2v0.6l5.8,15c0,1.6-2.2,1.7-5.1,1.7
						c-2.7,0-5.4-0.3-6-1.7L232.9,357.5z M239.1,336.3c0-13.4-5.8-13.5-11.2-13.5h-4.8v25.4h4.8
						C233.3,348.3,239.1,347.8,239.1,336.3z"/>
					<path class="st0" d="M271.6,322.8v15h12c1.5,0,1.7,2.2,1.7,4.6c0,2.4-0.2,4.6-1.7,4.6h-12v15.2h18.3c1.5,0,1.7,2.2,1.7,4.6
						c0,2.4-0.2,4.6-1.7,4.6h-24.4c-3.1,0-5.8-0.2-5.8-2.1v-53.9c0-1.9,2.8-2.1,5.8-2.1h24.4c1.5,0,1.7,2.2,1.7,4.6
						c0,2.4-0.2,4.6-1.7,4.6h-18.3V322.8z"/>
					<path class="st0" d="M313.6,339.5h-0.5v30c0,1.9-2.8,2.1-5.9,2.1s-5.9-0.2-5.9-2.1v-53.9c0-1.8,1.8-2.1,3.7-2.1
						c2.6,0,4.1,0.2,5.4,1.9l22.5,29.7h0.5v-29.6c0-1.9,2.8-2.1,5.9-2.1s5.9,0.2,5.9,2.1v53.9c0,1.8-1.8,2.1-3.7,2.1
						c-2.6,0-4.2-0.2-5.5-1.9L313.6,339.5z"/>
					<path class="st0" d="M368.1,362.5h19.7c1.5,0,1.7,2.2,1.7,4.6c0,2.4-0.2,4.6-1.7,4.6h-31.3c-1.7,0-1.7-2.7-1.7-5.2
						c0-1.8,0-3.6,0.5-4.6l20.9-38.5v-0.6h-19.7c-1.5,0-1.7-2.2-1.7-4.6c0-2.4,0.2-4.6,1.7-4.6h31.3c1.7,0,1.7,2.7,1.7,5.2
						c0,1.8,0,3.6-0.5,4.6L368.1,362V362.5z"/>
					<path class="st0" d="M432.5,313.5c1.5,0,1.7,2.2,1.7,4.6c0,2.4-0.2,4.6-1.7,4.6h-11.2v46.7c0,1.9-2.8,2.1-5.9,2.1
						s-5.9-0.2-5.9-2.1v-46.7h-11.2c-1.5,0-1.7-2.2-1.7-4.6c0-2.4,0.2-4.6,1.7-4.6H432.5z"/>
				</g>
			</g>
		</g>
	</g>
</g>
</svg>
