<?xml version="1.0" encoding="utf-8"?>
<!-- Generator: Adobe Illustrator 22.0.1, SVG Export Plug-In . SVG Version: 6.00 Build 0)  -->
<svg version="1.1" id="Ebene_2" xmlns="http://www.w3.org/2000/svg" xmlns:xlink="http://www.w3.org/1999/xlink" x="0px" y="0px"
	 viewBox="0 0 500 500" style="enable-background:new 0 0 500 500;" xml:space="preserve">
<style type="text/css">
	.st0{fill:#CBCCCC;}
	.st1{fill:#777776;}
</style>
<g>
	<g>
		<polygon class="st0" points="49.4,47.6 97.8,47.6 250,160.1 250,250 		"/>
		<polygon class="st1" points="49.4,47.6 44,94.8 160.1,250 250,250 		"/>
	</g>
	<g>
		<polygon class="st0" points="452.4,49.4 452.4,97.8 339.9,250 250,250 		"/>
		<polygon class="st1" points="452.4,49.4 405.2,44 250,160.1 250,250 		"/>
	</g>
	<g>
		<polygon class="st1" points="47.6,450.6 47.6,402.2 160.1,250 250,250 		"/>
		<polygon class="st0" points="47.6,450.6 94.8,456 250,341.6 250,250 		"/>
	</g>
	<g>
		<polygon class="st1" points="450.6,452.4 402.2,452.4 250,339.9 250,250 		"/>
		<polygon class="st0" points="450.6,452.4 456,405.2 341.6,250 250,250 		"/>
	</g>
</g>
</svg>
