<?xml version="1.0" encoding="utf-8"?>
<!-- Generator: Adobe Illustrator 22.0.1, SVG Export Plug-In . SVG Version: 6.00 Build 0)  -->
<svg version="1.1" id="Ebene_1" xmlns="http://www.w3.org/2000/svg" xmlns:xlink="http://www.w3.org/1999/xlink" x="0px" y="0px"
	 viewBox="0 0 100 100" style="enable-background:new 0 0 100 100;" xml:space="preserve">
<style type="text/css">
	.st0{fill:#8B5B34;}
</style>
<title>09</title>
<path class="st0" d="M3.3,53.7c4.7,2.8,3.3,2.8,5.6,1.8c8.7-3.8,14.4,2.9,18.5,4.3c6.7,2.3,9.9,2.3,19.4,6.5
	c5.1,2.2,13.1,5.9,20.3,1.6c5.2-3.1,4.9-2.9,9.4-7.3c4.9-4.8,12.2,0.4,16.3-1.7c5.1-2.6,6.8-4.6,4.3-11.2c-2.5-6.5-25.5-7.9-32-7.9
	s-6.8,2.8-15,6.2c-9.5,4-9.7,4.4-19.3,4.4s-7.2-5.6-16.2-4.9C5.6,46.3-1.4,50.9,3.3,53.7z"/>
</svg>
