<svg fill="#805A09" xmlns="http://www.w3.org/2000/svg" xmlns:xlink="http://www.w3.org/1999/xlink" version="1.1" x="0px" y="0px" viewBox="0 0 100 100" enable-background="new 0 0 100 100" xml:space="preserve"><path fill="#805A09" d="M65.998,56.059l2.31-19.247c-0.043-7.99-6.343-14.51-14.24-14.938V5.403h6.846V2.665h-6.846h-8.214h-6.845  v2.738h6.845v16.805c-6.289,1.411-11.105,6.757-11.699,13.315h18.545v2.738H34.255l3.276,27.382h20.643v2.738H37.861l0.328,2.737  c0,5.94,1.43,12.854,7.665,14.622v10.021H36.27V98.5h9.583h8.214h9.584v-2.738h-9.584v-9.615c5.52-0.322,8.167-3.882,9.328-8.183  H49.96v-2.737h13.98c0.185-1.373,0.26-2.766,0.26-4.108l0.01-0.162l1.46-12.159H49.96v-2.738H65.998z M51.33,20.463h-2.738V5.403  h2.738V20.463z M51.33,87.547v8.215h-2.738v-8.215H51.33z M41.746,49.213v-2.738h10.953v2.738H41.746z"></path></svg>