<?xml version="1.0" encoding="utf-8"?>
<!-- Generator: Adobe Illustrator 22.0.1, SVG Export Plug-In . SVG Version: 6.00 Build 0)  -->
<svg version="1.1" id="Ebene_1" xmlns="http://www.w3.org/2000/svg" xmlns:xlink="http://www.w3.org/1999/xlink" x="0px" y="0px"
	 viewBox="0 0 500 500" style="enable-background:new 0 0 500 500;" xml:space="preserve">
<style type="text/css">
	.st0{fill:#62ACE0;}
</style>
<g>
	<path class="st0" d="M70.8,133.9c1.4,0,1.6,2.1,1.6,4.4s-0.2,4.4-1.6,4.4H60.3v44.3c0,1.8-2.7,2-5.6,2s-5.6-0.2-5.6-2v-44.3H38.4
		c-1.4,0-1.6-2.1-1.6-4.4s0.2-4.4,1.6-4.4H70.8z"/>
	<path class="st0" d="M92.4,142.8V157h11.4c1.4,0,1.6,2.1,1.6,4.4s-0.2,4.4-1.6,4.4H92.4v14.4h17.4c1.4,0,1.6,2.1,1.6,4.4
		c0,2.3-0.2,4.4-1.6,4.4H86.7c-2.9,0-5.5-0.2-5.5-2v-51.1c0-1.8,2.7-2,5.5-2h23.1c1.4,0,1.6,2.1,1.6,4.4s-0.2,4.4-1.6,4.4H92.4z"/>
	<path class="st0" d="M131.7,187.1c0,1.8-2.7,2-5.6,2s-5.6-0.2-5.6-2v-51.1c0-1.8,2.7-2,5.6-2s5.6,0.2,5.6,2V187.1z"/>
	<path class="st0" d="M171.4,180.3c1.4,0,1.6,2.1,1.6,4.4c0,2.3-0.2,4.4-1.6,4.4h-23.1c-2.9,0-5.5-0.2-5.5-2v-51.1
		c0-1.8,2.7-2,5.6-2s5.6,0.2,5.6,2v44.3H171.4z"/>
	<path class="st0" d="M193.8,158.6h-0.5v28.5c0,1.8-2.7,2-5.6,2s-5.6-0.2-5.6-2v-51.1c0-1.7,1.7-2,3.5-2c2.5,0,3.9,0.2,5.1,1.8
		L212,164h0.5v-28.1c0-1.8,2.7-2,5.6-2s5.6,0.2,5.6,2v51.1c0,1.7-1.7,2-3.5,2c-2.5,0-4-0.2-5.2-1.8L193.8,158.6z"/>
	<path class="st0" d="M263.4,136.4l12.1,50.9c0,1.7-2.3,1.8-5.1,1.8s-5.4-0.1-5.8-1.8l-2.5-10.4h-16.7l-2.5,10.4
		c-0.4,1.7-3,1.8-5.8,1.8c-2.8,0-5.1-0.1-5.1-1.8l12.1-50.9c0.6-2.2,6.3-2.5,9.7-2.5C257.1,133.9,262.8,134.2,263.4,136.4z
		 M247.7,167.2h12.1l-5.7-23.9h-0.6L247.7,167.2z"/>
	<path class="st0" d="M324.3,187.1c0,1.8-2.7,2-5.6,2c-2.9,0-5.6-0.2-5.6-2v-20.5h-18.1v20.5c0,1.8-2.7,2-5.6,2
		c-2.9,0-5.6-0.2-5.6-2v-51.1c0-1.8,2.7-2,5.6-2c2.9,0,5.6,0.2,5.6,2v21h18.1v-21c0-1.8,2.7-2,5.6-2c2.9,0,5.6,0.2,5.6,2V187.1z"/>
	<path class="st0" d="M360.2,154.4l14-18.8c0.8-1.2,1.7-1.7,5-1.7c2.5,0,5.3,0.2,5.3,2.1v51.1c0,1.8-2.7,2-5.6,2
		c-2.9,0-5.6-0.2-5.6-2v-30.7h-0.5l-11.4,15.7c-0.4,0.5-0.8,0.7-1.5,0.7c-0.6,0-1.1-0.3-1.5-0.7L347,156.4h-0.5v30.7
		c0,1.8-2.7,2-5.6,2c-2.9,0-5.6-0.2-5.6-2V136c0-1.9,2.9-2.1,5.3-2.1c3.2,0,4.1,0.6,5,1.7l14,18.8H360.2z"/>
	<path class="st0" d="M406.7,142.8V157h11.4c1.4,0,1.6,2.1,1.6,4.4s-0.2,4.4-1.6,4.4h-11.4v14.4h17.4c1.4,0,1.6,2.1,1.6,4.4
		c0,2.3-0.2,4.4-1.6,4.4H401c-2.9,0-5.5-0.2-5.5-2v-51.1c0-1.8,2.7-2,5.5-2h23.1c1.4,0,1.6,2.1,1.6,4.4s-0.2,4.4-1.6,4.4H406.7z"/>
	<path class="st0" d="M436.4,176c-1.4,0-1.6-2.1-1.6-4.4c0-2.3,0.2-4.4,1.6-4.4h22.8c1.4,0,1.6,2.1,1.6,4.4c0,2.3-0.2,4.4-1.6,4.4
		H436.4z"/>
	<path class="st0" d="M176.2,268.3h18.7c1.4,0,1.6,2.1,1.6,4.4c0,2.3-0.2,4.4-1.6,4.4h-29.7c-1.6,0-1.6-2.6-1.6-4.9
		c0-1.7,0-3.4,0.5-4.4l19.8-36.5v-0.6h-18.7c-1.4,0-1.6-2.1-1.6-4.4s0.2-4.4,1.6-4.4h29.7c1.6,0,1.6,2.6,1.6,4.9
		c0,1.7,0,3.4-0.5,4.4l-19.8,36.6V268.3z"/>
	<path class="st0" d="M234.3,224.4l12.1,50.9c0,1.7-2.3,1.8-5.1,1.8c-2.8,0-5.4-0.1-5.8-1.8l-2.5-10.4h-16.7l-2.5,10.4
		c-0.4,1.7-3,1.8-5.8,1.8c-2.8,0-5.1-0.1-5.1-1.8l12.1-50.9c0.6-2.2,6.3-2.5,9.7-2.5S233.7,222.2,234.3,224.4z M218.5,255.2h12.1
		l-5.7-23.9h-0.6L218.5,255.2z"/>
	<path class="st0" d="M295.2,275.1c0,1.8-2.7,2-5.6,2c-2.9,0-5.6-0.2-5.6-2v-20.5h-18.1v20.5c0,1.8-2.7,2-5.6,2
		c-2.9,0-5.6-0.2-5.6-2v-51.1c0-1.8,2.7-2,5.6-2c2.9,0,5.6,0.2,5.6,2v21h18.1v-21c0-1.8,2.7-2,5.6-2c2.9,0,5.6,0.2,5.6,2V275.1z"/>
	<path class="st0" d="M334.8,268.3c1.4,0,1.6,2.1,1.6,4.4c0,2.3-0.2,4.4-1.6,4.4h-23.1c-2.9,0-5.5-0.2-5.5-2v-51.1
		c0-1.8,2.7-2,5.6-2c2.9,0,5.6,0.2,5.6,2v44.3H334.8z"/>
	<path class="st0" d="M84.4,365.1c-2.9,0-5.5-0.2-5.5-2v-51.1c0-1.8,2.7-2,5.5-2h12.9c15.5,0,18.3,8.8,18.3,15.3c0,2.3-0.9,9-6.7,12
		v0.6c6,2.4,7.5,7.7,7.5,11.5c0,10.1-3.5,15.9-19.3,15.9H84.4z M104.4,325.8c0-6.6-4.3-7.1-8.7-7.1h-5.6V333h5.6
		C100.1,333,104.4,332.4,104.4,325.8z M105.2,349c0-6.6-4.3-7.2-9-7.2h-6.2v14.4h6.2C100.9,356.3,105.2,355.8,105.2,349z"/>
	<path class="st0" d="M136.8,318.8V333h11.4c1.4,0,1.6,2.1,1.6,4.4s-0.2,4.4-1.6,4.4h-11.4v14.4h17.4c1.4,0,1.6,2.1,1.6,4.4
		s-0.2,4.4-1.6,4.4h-23.1c-2.9,0-5.5-0.2-5.5-2v-51.1c0-1.8,2.7-2,5.5-2h23.1c1.4,0,1.6,2.1,1.6,4.4s-0.2,4.4-1.6,4.4H136.8z"/>
	<path class="st0" d="M202,363.5c0,2-12.5,2-15.1,2c-18.1,0-26-11.8-26-27.8c0-13.2,5-28.2,26.4-28.2c4.7,0,7.1,0.3,11.8,1.1
		c0.6,0.3,1,0.9,1,1.8c0,1.4-0.6,6.5-2.4,6.7c-2.8-0.6-6-0.8-9-0.8c-11.5,0-16.7,7.1-16.7,19.6c0,12.9,5.2,18.8,16.7,18.8
		c0.9,0,1,0,3.4-0.5v-13.1h-6c-1.4,0-1.5-2.6-1.5-4.8c0-2.4,0.1-4.9,1.5-4.9h14.7c1.2,0,1.2,2.4,1.2,4.3V363.5z"/>
	<path class="st0" d="M232.6,351.6c-1,0.1-2.1,0.1-3.3,0.1h-5.9v11.4c0,1.8-2.7,2-5.6,2s-5.6-0.2-5.6-2v-51.1c0-1.8,2.7-2,5.6-2
		h11.5c15.8,0,20.1,8.9,20.1,21.6c0,8.1-1.7,14.1-7.1,17.3v0.6l5.5,14.2c0,1.5-2.1,1.6-4.8,1.6c-2.6,0-5.1-0.3-5.7-1.6L232.6,351.6z
		 M238.5,331.5c0-12.7-5.5-12.8-10.6-12.8h-4.6v24.1h4.6C233,342.9,238.5,342.5,238.5,331.5z"/>
	<path class="st0" d="M269.3,318.8V333h11.4c1.4,0,1.6,2.1,1.6,4.4s-0.2,4.4-1.6,4.4h-11.4v14.4h17.4c1.4,0,1.6,2.1,1.6,4.4
		s-0.2,4.4-1.6,4.4h-23.1c-2.9,0-5.5-0.2-5.5-2v-51.1c0-1.8,2.7-2,5.5-2h23.1c1.4,0,1.6,2.1,1.6,4.4s-0.2,4.4-1.6,4.4H269.3z"/>
	<path class="st0" d="M309.1,334.6h-0.5v28.5c0,1.8-2.7,2-5.6,2c-2.9,0-5.6-0.2-5.6-2v-51.1c0-1.7,1.7-2,3.5-2
		c2.5,0,3.9,0.2,5.1,1.8l21.3,28.2h0.5v-28.1c0-1.8,2.7-2,5.6-2c2.9,0,5.6,0.2,5.6,2v51.1c0,1.7-1.7,2-3.5,2c-2.5,0-4-0.2-5.2-1.8
		L309.1,334.6z"/>
	<path class="st0" d="M360.8,356.3h18.7c1.4,0,1.6,2.1,1.6,4.4s-0.2,4.4-1.6,4.4h-29.7c-1.6,0-1.6-2.6-1.6-4.9c0-1.7,0-3.4,0.5-4.4
		l19.8-36.5v-0.6h-18.7c-1.4,0-1.6-2.1-1.6-4.4s0.2-4.4,1.6-4.4h29.7c1.6,0,1.6,2.6,1.6,4.9c0,1.7,0,3.4-0.5,4.4l-19.8,36.6V356.3z"
		/>
	<path class="st0" d="M421.9,309.9c1.4,0,1.6,2.1,1.6,4.4s-0.2,4.4-1.6,4.4h-10.6v44.3c0,1.8-2.7,2-5.6,2c-2.9,0-5.6-0.2-5.6-2
		v-44.3h-10.6c-1.4,0-1.6-2.1-1.6-4.4s0.2-4.4,1.6-4.4H421.9z"/>
</g>
</svg>
