<?xml version="1.0" encoding="utf-8"?>
<!-- Generator: Adobe Illustrator 22.0.1, SVG Export Plug-In . SVG Version: 6.00 Build 0)  -->
<svg version="1.1"
	 id="Ebene_1" xmlns:cc="http://creativecommons.org/ns#" xmlns:dc="http://purl.org/dc/elements/1.1/" xmlns:rdf="http://www.w3.org/1999/02/22-rdf-syntax-ns#" xmlns:svg="http://www.w3.org/2000/svg"
	 xmlns="http://www.w3.org/2000/svg" xmlns:xlink="http://www.w3.org/1999/xlink" x="0px" y="0px" viewBox="0 0 26.5 26.5"
	 style="enable-background:new 0 0 26.5 26.5;" xml:space="preserve">
<style type="text/css">
	.st0{fill:#51A7F9;}
</style>
<g transform="translate(0,-270.542)">
	<path class="st0" d="M8.4,274.7c0,1,0.8,1.9,1.9,1.9s1.9-0.8,1.9-1.9c0-1-0.8-1.9-1.9-1.9S8.4,273.7,8.4,274.7z M13,276.8
		c-0.2,0-0.4,0.1-0.6,0.2l-2.7,2.7h-3c0,0,0,0-0.1,0c-0.4,0-0.8,0.4-0.8,0.8c0,0.4,0.4,0.8,0.8,0.8H10c0.2,0,0.4-0.1,0.6-0.2
		l1.7-1.7l3,3l-2.4,1.4c-0.2,0.1-0.4,0.4-0.4,0.7v6.1c0,0,0,0,0,0c0,0.4,0.4,0.8,0.8,0.8c0.4,0,0.8-0.4,0.8-0.8V285l3.8-2.2
		c0.1,0,0.1-0.1,0.2-0.1c0.3-0.3,0.3-0.8,0-1.1l-4.5-4.5C13.4,276.9,13.2,276.8,13,276.8L13,276.8z M14.7,289.6c0,2.8,2.3,5,5,5
		s5-2.3,5-5c0-2.8-2.3-5-5-5S14.7,286.9,14.7,289.6z M1.7,289.6c0,2.8,2.3,5,5,5s5-2.3,5-5c0-2.8-2.3-5-5-5S1.7,286.9,1.7,289.6z
		 M23.4,289.6c0,2.1-1.7,3.7-3.7,3.7s-3.7-1.7-3.7-3.7c0-2.1,1.6-3.7,3.7-3.7S23.4,287.6,23.4,289.6z M10.4,289.6
		c0,2.1-1.7,3.7-3.7,3.7S3,291.7,3,289.6c0-2.1,1.6-3.7,3.7-3.7S10.4,287.6,10.4,289.6z"/>
</g>
</svg>
