<svg fill="#CD0003" xmlns="http://www.w3.org/2000/svg" xmlns:xlink="http://www.w3.org/1999/xlink" version="1.1" x="0px" y="0px" viewBox="0 0 100 100" enable-background="new 0 0 100 100" xml:space="preserve"><path d="M72.536,28.785c-1.314,0-2.578-0.425-3.79,0V23.89h-0.007c0-5.108-12.247-9.25-27.358-9.25  c-15.109,0-27.358,4.143-27.358,9.25v54.218l0,0c0,5.107,12.249,9.253,27.358,9.253c15.111,0,27.365-4.143,27.365-9.253v-4.896  c1.212,0.426,2.476,0,3.79,0c8.66,0,15.44-9.755,15.44-22.212S81.196,28.785,72.536,28.785z M41.381,29.886  c-15.733,0-23.899-4.387-24.349-6.054c0.453-1.552,8.616-5.939,24.349-5.939s23.898,4.39,24.348,6.054  C65.285,25.499,57.121,29.886,41.381,29.886z M72.536,68.336c-1.327,0-2.609-1.553-3.79-2.323V36.248  c1.181-0.774,2.463-2.587,3.79-2.587c5.727,0,10.564,7.939,10.564,17.339C83.101,60.396,78.263,68.336,72.536,68.336z"></path></svg>